<?xml version="1.0" standalone="no"?>
<!DOCTYPE svg PUBLIC "-//W3C//DTD SVG 20010904//EN"
 "http://www.w3.org/TR/2001/REC-SVG-20010904/DTD/svg10.dtd">
<svg version="1.0" xmlns="http://www.w3.org/2000/svg"
 width="512.000000pt" height="512.000000pt" viewBox="0 0 512.000000 512.000000"
 preserveAspectRatio="xMidYMid meet">

<g transform="translate(0.000000,512.000000) scale(0.100000,-0.100000)"
fill="#FFFFFF" stroke="none">
<path d="M2013 4413 c-272 -237 -411 -407 -483 -588 -48 -120 -63 -193 -64
-295 0 -124 26 -202 99 -302 114 -154 194 -325 227 -488 26 -126 21 -328 -12
-440 -33 -116 -93 -228 -176 -328 -41 -51 -74 -93 -72 -93 5 -3 1963 -15 1967
-12 2 1 -34 37 -79 80 -153 143 -208 266 -217 478 -4 86 -1 147 11 215 32 185
137 448 240 604 104 157 122 360 51 584 -38 120 -95 204 -224 332 -122 121
-369 303 -358 264 3 -11 21 -68 39 -129 78 -263 19 -478 -189 -680 -43 -42
-154 -125 -167 -125 -3 0 -6 111 -8 246 l-3 246 -28 24 c-38 32 -72 31 -108
-5 l-29 -29 0 -246 c0 -174 -3 -246 -11 -246 -29 0 -156 100 -238 186 -140
149 -192 280 -175 444 5 50 59 252 99 368 2 6 2 12 0 12 -3 0 -44 -34 -92 -77z
m1203 -421 c109 -128 152 -232 161 -392 11 -182 -51 -301 -187 -364 -54 -25
-193 -28 -280 -7 -69 17 -158 61 -187 93 l-23 24 76 54 c199 142 344 360 377
565 6 41 14 75 17 75 3 0 23 -21 46 -48z m-1324 -212 c52 -114 182 -265 313
-363 44 -33 80 -64 80 -69 0 -18 -128 -88 -200 -110 -45 -14 -96 -22 -141 -22
-168 1 -298 121 -311 287 -10 120 55 306 152 437 l48 64 17 -84 c10 -47 29
-110 42 -140z m538 -1140 l0 -600 -286 0 c-268 0 -286 1 -281 18 3 9 19 49 35
87 103 249 104 537 3 814 -17 47 -31 86 -31 88 0 2 35 3 78 3 141 0 305 58
425 150 29 22 53 40 55 40 1 0 2 -270 2 -600z m322 466 c81 -36 199 -58 311
-58 87 0 98 -2 92 -17 -35 -90 -77 -226 -96 -307 -18 -81 -22 -128 -22 -259 0
-173 15 -258 68 -373 14 -30 25 -56 25 -58 0 -6 -296 -4 -417 3 l-113 6 0 579
0 578 49 -35 c26 -19 73 -46 103 -59z"/>
<path d="M1492 1581 c-27 -69 -82 -282 -82 -317 0 -28 10 -31 130 -37 110 -6
197 -29 288 -75 229 -117 365 -340 392 -646 5 -60 11 -110 12 -112 2 -1 38 -7
81 -13 87 -12 290 -14 352 -3 l40 7 7 93 c13 193 87 352 237 505 149 154 311
238 495 257 48 5 90 11 92 12 12 13 -83 358 -105 381 -4 4 -36 1 -72 -7 -106
-24 -238 -35 -572 -47 -467 -17 -1084 9 -1227 51 -19 5 -37 10 -40 10 -3 0
-15 -27 -28 -59z m288 -152 c277 -28 1255 -21 1475 10 63 9 71 7 77 -22 2 -15
-13 -23 -82 -46 -160 -52 -284 -130 -413 -258 -141 -140 -230 -298 -272 -482
l-22 -94 -74 2 c-78 3 -89 9 -89 52 0 54 -51 223 -93 312 -119 250 -310 403
-586 470 -47 11 -87 21 -89 23 -2 1 0 13 3 27 6 22 11 25 33 21 15 -2 74 -9
132 -15z"/>
</g>
</svg>
